<svg width="100" height="35" viewBox="0 0 100 35" fill="none" xmlns="http://www.w3.org/2000/svg">
<g clip-path="url(#clip0_11437_756)">
<path d="M89.0911 0.407227H4.29666C2.14889 0.407227 0.407776 2.14834 0.407776 4.29612V30.7045C0.407776 32.8522 2.14889 34.5933 4.29666 34.5933H89.0911C91.2389 34.5933 92.98 32.8522 92.98 30.7045V4.29612C92.98 2.14834 91.2389 0.407227 89.0911 0.407227Z" fill="white"/>
<path d="M92.7705 4.58507C92.7705 2.25062 90.875 0.358398 88.5367 0.358398H32.0517V34.5634H88.5367C89.6594 34.5634 90.7367 34.1178 91.5306 33.3251C91.9235 32.9328 92.2354 32.4669 92.4481 31.9541C92.6609 31.4412 92.7705 30.8914 92.7705 30.3362V4.58507Z" fill="#005F86"/>
<path d="M88.5367 34.9211H31.6945V0H88.5367C91.0722 0.00222222 93.1267 2.05389 93.1289 4.585V30.3361C93.1267 32.8672 91.0722 34.9194 88.5367 34.9211ZM32.4117 34.2056H88.5367C90.6756 34.2028 92.4089 32.4722 92.4117 30.3367V4.585C92.4089 2.45 90.6756 0.719445 88.5367 0.716111H32.4117V34.2056ZM14.11 11.5433L12.6361 13.5783C11.8956 14.5967 12.125 16.4011 13.1361 17.1294L15.875 19.1033C16.345 19.4422 16.3817 19.7817 16.1589 20.1361L16.5572 20.4317L17.9445 18.5133C18.8017 17.3278 18.7267 15.715 17.4556 14.7911L14.6889 12.78C14.3589 12.5389 14.3233 12.2039 14.5067 11.8306L14.1089 11.5472M16.4795 2.56278L14.1795 5.73833C13.1006 7.23056 13.5 9.76722 14.9672 10.8528L18.75 13.6244C19.5167 14.1856 19.6167 15.6172 19.0583 16.3494L19.3789 16.59L21.9878 12.9267C23.1589 11.2817 23.0911 8.85056 21.2511 7.51667L17.2056 4.58333C16.6389 4.17611 16.3567 3.475 16.8278 2.80889L16.48 2.56333M10.4183 22.4817H13.4661L14.0095 24.3261H18.9906L19.5339 22.4817H22.5828L22.1833 21.125H10.8178L10.4183 22.4817ZM11.8467 28.6539C12.3817 28.3406 12.7106 27.8806 12.7106 27.25C12.7106 25.9894 11.6767 25.4756 10.5478 25.4756H7.39557V32.1667H10.5206C11.8545 32.1667 13.2678 31.585 13.0395 30.0522C12.9033 29.1744 12.5561 28.9667 11.8478 28.6522M8.81779 26.7522H10.4622C11.485 26.7522 11.5217 28.18 10.5256 28.18H8.81779V26.7522ZM10.6483 30.9022H8.81779V29.3761H10.6483C11.9917 29.3761 11.9095 30.9022 10.6483 30.9022ZM18.1045 28.6533C18.64 28.34 18.9689 27.88 18.9689 27.2494C18.9689 25.9889 17.935 25.475 16.8056 25.475H13.6533V32.1667H16.7783C18.1117 32.1667 19.5256 31.585 19.2978 30.0522C19.1617 29.1744 18.8139 28.9667 18.1061 28.6522M15.0817 26.7522H16.7122C17.735 26.7522 17.7717 28.18 16.7756 28.18H15.0811L15.0817 26.7522ZM16.9078 30.9011H15.0817V29.3761H16.9078C18.25 29.3761 18.1689 30.9028 16.9078 30.9028V30.9011ZM25.5545 30.0533C25.4183 29.1756 25.0711 28.9678 24.3628 28.6533C24.8983 28.34 25.2267 27.88 25.2267 27.2494C25.2267 25.9889 24.1933 25.475 23.0639 25.475H19.9111V32.1667H23.0361C24.3695 32.1667 25.7833 31.585 25.555 30.0522M21.3433 26.7539H22.9739C23.9967 26.7539 24.0333 28.1817 23.0372 28.1817H21.3389L21.3445 26.7539H21.3433ZM23.1695 30.9028H21.3378V29.3761H23.1639C24.5061 29.3761 24.425 30.9028 23.1639 30.9028H23.1695Z" fill="#005F86"/>
<path d="M40.9483 16.0593L40.6428 15.2166H38.5056L38.1917 16.0593H36.9806L38.9089 11.0832H40.2389L42.1589 16.0593H40.9483ZM39.575 12.1416L38.7972 14.2821H40.3528L39.575 12.1416ZM42.4361 13.5738C42.4361 12.0449 43.5939 10.996 45.0883 10.996C45.5152 10.9841 45.9369 11.0922 46.3054 11.3081C46.6739 11.5239 46.9744 11.8389 47.1728 12.2171L46.2611 12.6649C46.1496 12.4504 45.9826 12.2698 45.7775 12.1419C45.5724 12.014 45.3367 11.9434 45.095 11.9377C44.1917 11.9377 43.5339 12.631 43.5339 13.5655C43.5339 14.5005 44.1917 15.1932 45.095 15.1932C45.5894 15.1877 46.0411 14.9099 46.2672 14.471L47.1739 14.9221C46.815 15.541 46.1878 16.1432 45.0894 16.1432C43.6006 16.1432 42.4361 15.1043 42.4361 13.5738ZM47.6222 13.5738C47.6222 12.0449 48.78 10.996 50.2745 10.996C50.7014 10.9841 51.123 11.0922 51.4915 11.3081C51.86 11.5239 52.1606 11.8389 52.3589 12.2171L51.4472 12.6649C51.3343 12.4496 51.1656 12.2686 50.9588 12.1406C50.7521 12.0127 50.5148 11.9426 50.2717 11.9377C49.3683 11.9377 48.7106 12.631 48.7106 13.5655C48.7106 14.5005 49.3683 15.1932 50.2717 15.1932C50.7661 15.1877 51.2178 14.9099 51.4439 14.471L52.3561 14.9099C51.9972 15.5288 51.3694 16.131 50.2717 16.131C48.7772 16.1432 47.6222 15.1043 47.6222 13.5738ZM55.8639 16.0593L54.8861 14.2955H54.1083V16.0593H53.0472V11.0832H55.3789C56.4172 11.0832 57.0528 11.761 57.0528 12.6866C57.0528 13.5671 56.5 14.0432 55.9661 14.1643L57.0872 16.0632L55.8639 16.0593ZM55.9644 12.6871C55.9644 12.2688 55.6439 12.0082 55.2172 12.0082H54.1044V13.3516H55.2172C55.6483 13.3582 55.9644 13.1049 55.9644 12.6871ZM57.905 16.0593V11.0832H61.4378V12.0155H58.9672V13.0666H61.3806V13.9988H58.9672V15.1243H61.4333V16.0566L57.905 16.0593ZM62.3139 16.0593V11.0832H64.2783C65.8394 11.0832 66.9239 12.0749 66.9239 13.5755C66.9239 15.0755 65.8372 16.0588 64.2783 16.0588L62.3139 16.0593ZM65.8467 13.5755C65.8467 12.6949 65.3028 12.0166 64.2856 12.0166H63.3817V15.126H64.2856C65.265 15.126 65.8411 14.4177 65.8411 13.5738L65.8467 13.5755ZM67.7322 16.0593V11.0832H68.7933V16.0593H67.7322ZM70.9822 16.0593V12.0155H69.5244V11.0832H73.5056V12.0155H72.05V16.0593H70.9822ZM74.2322 16.0593V11.0832H77.765V12.0155H75.2933V13.0666H77.7039V13.9988H75.2933V15.1243H77.7594V16.0566L74.2322 16.0593ZM78.6411 16.0593V11.0832H80.6061C82.1672 11.0832 83.2511 12.0749 83.2511 13.5755C83.2511 15.0755 82.1645 16.0588 80.6061 16.0588L78.6411 16.0593ZM82.1739 13.5755C82.1739 12.6949 81.6306 12.0166 80.6128 12.0166H79.7095V15.126H80.6128C81.5939 15.126 82.1683 14.4177 82.1683 13.5738L82.1739 13.5755ZM37.5122 24.6055V19.6299H40.1344C41.0856 19.6299 41.5694 20.2332 41.5694 20.8982C41.5694 21.5249 41.1806 21.9427 40.7106 22.0388C41.2406 22.1205 41.6617 22.636 41.6617 23.2599C41.6617 24.006 41.1617 24.6032 40.2117 24.6032L37.5122 24.6055ZM40.4867 21.0788C40.4866 21.0074 40.4725 20.9368 40.4451 20.8709C40.4177 20.805 40.3776 20.7452 40.3271 20.6948C40.2766 20.6444 40.2167 20.6044 40.1507 20.5772C40.0848 20.5499 40.0141 20.5359 39.9428 20.536H38.5733V21.621H39.9033C40.2611 21.621 40.485 21.3971 40.485 21.0788H40.4867ZM40.5828 23.1132C40.5828 22.7999 40.3589 22.5316 39.94 22.5316H38.5733V23.6871H39.9456C40.34 23.6871 40.5828 23.4688 40.5828 23.1132ZM42.5133 22.621V19.6299H43.6006V22.5843C43.6006 23.2777 44.0083 23.7549 44.7728 23.7549C45.5378 23.7549 45.9389 23.2771 45.9389 22.5843V19.6299H47.0256V22.6143C47.0256 23.8532 46.2933 24.6955 44.7772 24.6955C43.2606 24.6955 42.5133 23.8449 42.5133 22.621ZM47.7122 23.9043L48.2867 23.0988C48.4917 23.3119 48.7378 23.4813 49.0101 23.5967C49.2825 23.712 49.5754 23.7709 49.8711 23.7699C50.4539 23.7699 50.7378 23.4988 50.7378 23.2177C50.7378 22.8532 50.2744 22.7488 49.7294 22.6143C48.9144 22.4282 47.8694 22.2071 47.8694 21.0705C47.8694 20.2427 48.5872 19.5566 49.7594 19.5566C50.5517 19.5566 51.2094 19.7955 51.7022 20.2499L51.1117 21.0271C50.7131 20.6714 50.1958 20.4777 49.6617 20.4843C49.2061 20.4843 48.9522 20.6866 48.9522 20.9838C48.9522 21.3049 49.4078 21.4082 49.9456 21.536C50.7611 21.7299 51.8139 21.9766 51.8139 23.1027C51.8139 24.0127 51.1639 24.6993 49.8195 24.6993C48.8628 24.6899 48.175 24.3738 47.7122 23.9043ZM52.5817 24.6055V19.6299H53.6428V24.6055H52.5817ZM58.1211 24.6055L55.7444 21.361V24.6055H54.6833V19.6299H55.7706L58.08 22.7499V19.6299H59.1411V24.6055H58.1211ZM60.19 24.6055V19.6299H63.7228V20.5616H61.2444V21.6132H63.6578V22.5449H61.2444V23.671H63.7094V24.6032L60.19 24.6055ZM64.2528 23.9043L64.8272 23.0988C65.0323 23.3119 65.2784 23.4813 65.5507 23.5967C65.823 23.712 66.1159 23.7709 66.4117 23.7699C66.995 23.7699 67.2783 23.4988 67.2783 23.2177C67.2783 22.8532 66.815 22.7488 66.2706 22.6143C65.455 22.4282 64.4106 22.2071 64.4106 21.0705C64.4106 20.2427 65.1272 19.5566 66.3 19.5566C67.0922 19.5566 67.75 19.7955 68.2433 20.2499L67.6628 21.0271C67.2641 20.672 66.7472 20.4784 66.2133 20.4843C65.7578 20.4843 65.5039 20.6866 65.5039 20.9838C65.5039 21.3049 65.9606 21.4082 66.4972 21.536C67.3128 21.7299 68.3656 21.9766 68.3656 23.1027C68.3656 24.0127 67.7156 24.6993 66.3711 24.6993C65.4078 24.6899 64.72 24.3738 64.2528 23.9043ZM68.7933 23.9043L69.3683 23.0988C69.5733 23.3119 69.8193 23.4812 70.0916 23.5965C70.3638 23.7119 70.6566 23.7709 70.9522 23.7699C71.5356 23.7699 71.8189 23.4988 71.8189 23.2177C71.8189 22.8532 71.3561 22.7488 70.8111 22.6143C69.9961 22.4282 68.9511 22.2071 68.9511 21.0705C68.9511 20.2427 69.6683 19.5566 70.8411 19.5566C71.6333 19.5566 72.2911 19.7955 72.7839 20.2499L72.1928 21.0271C71.794 20.6718 71.2769 20.4783 70.7428 20.4843C70.2878 20.4843 70.0339 20.6866 70.0339 20.9838C70.0339 21.3049 70.4906 21.4082 71.0272 21.536C71.8422 21.7299 72.8956 21.9766 72.8956 23.1027C72.8956 24.0127 72.2456 24.6993 70.9011 24.6993C69.9428 24.6899 69.2556 24.3738 68.7933 23.9043Z" fill="white"/>
<path d="M94.0978 31.9817V31.965C94.0963 31.183 94.4055 30.4324 94.9574 29.8784C95.5092 29.3243 96.2586 29.0122 97.0406 29.0106C97.4279 29.0092 97.8117 29.0841 98.1701 29.2311C98.5285 29.3781 98.8544 29.5942 99.1292 29.8672C99.404 30.1402 99.6224 30.4646 99.7718 30.822C99.9212 31.1793 99.9988 31.5627 100 31.95V31.9661C100.001 32.7481 99.6923 33.4987 99.1404 34.0527C98.5885 34.6068 97.8392 34.9189 97.0572 34.9206C96.6699 34.9219 96.2861 34.847 95.9278 34.7001C95.5694 34.5531 95.2436 34.337 94.9688 34.0641C94.6939 33.7912 94.4756 33.4668 94.3261 33.1095C94.1767 32.7522 94.0991 32.369 94.0978 31.9817ZM99.7311 31.965V31.9489C99.7294 31.4786 99.604 31.017 99.3673 30.6106C99.1306 30.2043 98.791 29.8674 98.3828 29.6339C97.9742 29.4001 97.5113 29.2778 97.0405 29.2792C96.5698 29.2807 96.1077 29.4059 95.7006 29.6422C95.2938 29.8783 94.9565 30.2173 94.7224 30.6251C94.4883 31.033 94.3658 31.4953 94.3672 31.9656V31.9817C94.3688 32.4519 94.4942 32.9134 94.7308 33.3198C94.9674 33.7262 95.3069 34.0631 95.715 34.2967C96.1236 34.5305 96.5865 34.6528 97.0572 34.6513C97.528 34.6499 97.9901 34.5247 98.3972 34.2883C98.8038 34.0523 99.1412 33.7134 99.3752 33.3057C99.6093 32.8979 99.7318 32.4357 99.7306 31.9656L99.7311 31.965ZM95.8911 30.37H97.25C97.5788 30.3551 97.9004 30.4689 98.1467 30.6872C98.3061 30.8406 98.395 31.0528 98.3911 31.2733V31.29C98.3911 31.7783 98.065 32.0711 97.6089 32.1767L98.5461 33.39H97.9917L97.1194 32.25H96.345V33.39H95.8967L95.8911 30.37ZM97.2039 31.8511C97.6278 31.8511 97.9211 31.6561 97.9211 31.3089V31.2922C97.9211 30.975 97.66 30.7717 97.2283 30.7717H96.3394V31.8461L97.2039 31.8511ZM4.715 34.9211C2.17889 34.9189 0.12389 32.8672 0.122223 30.3361V4.585C0.124445 2.05389 2.17944 0.00222222 4.71444 0H32.4117V34.9211H4.71444H4.715ZM4.715 0.716111C2.57611 0.719445 0.842778 2.44944 0.839445 4.585V30.3361C0.842778 32.4717 2.57556 34.2022 4.71444 34.205H31.6944V0.716667H4.71444L4.715 0.716111Z" fill="#005F86"/>
</g>
<defs>
<clipPath id="clip0_11437_756">
<rect width="100" height="35" fill="white"/>
</clipPath>
</defs>
</svg>
