<svg width="183" height="32" viewBox="0 0 183 32" fill="none" xmlns="http://www.w3.org/2000/svg">
<path d="M26.0361 14.8341L19.7859 8.56819L17.4792 10.9303L23.3488 16.8185L15.5836 22.4662L8.05444 16.8032L13.3835 11.3425L18.3319 6.27476C18.7239 5.87026 19.1388 5.54208 19.5652 5.29785C20.433 4.79795 21.4265 4.53465 22.4352 4.53465C25.6212 4.53465 28.2134 7.13338 28.2134 10.3274C28.2134 11.9492 27.3684 13.6702 26.0323 14.8379L26.0361 14.8341ZM26.8165 27.4729H4.6705V20.2796L4.77328 20.1728L5.73252 19.1882L15.5532 26.5761L25.7126 19.1882L26.8165 20.2949V27.4767V27.4729ZM31.5136 10.3274C31.5136 5.30931 27.4445 1.22996 22.439 1.22996C20.8556 1.22996 19.2949 1.6459 17.9284 2.432C17.3346 2.77545 16.7636 3.20285 16.2307 3.7142L8.46555 11.6706H8.46174L5.41276 14.7883C4.11476 13.6397 3.29638 11.9301 3.29638 10.3236C3.29638 7.12956 5.88857 4.53083 9.07457 4.53083C9.85109 4.53083 10.6086 4.68347 11.3052 4.97731L13.7184 2.50451C12.3329 1.67643 10.738 1.22614 9.07457 1.22614C4.06909 1.22614 0 5.30549 0 10.3236C0 12.8345 1.17238 15.3798 3.10606 17.1543L1.37412 18.9287V29.026C1.37412 29.9914 2.15445 30.7737 3.11749 30.7737H28.3733C29.3363 30.7737 30.1167 29.9914 30.1167 29.026V18.9173L28.3771 17.1734C30.3336 15.3875 31.5174 12.8422 31.5174 10.3236L31.5136 10.3274Z" fill="#C6A664"/>
<path d="M42.9789 11.5685H39.6109V7.9984H42.9789C43.9618 7.9984 44.7086 8.78134 44.7086 9.78342C44.7086 10.7855 43.9618 11.5685 42.9789 11.5685ZM39.6109 2.75395H42.5789C43.5086 2.75395 44.2171 3.48158 44.2171 4.42834C44.2171 5.37511 43.5065 6.10274 42.5789 6.10274H39.6109V2.75182V2.75395ZM45.0192 6.92397C45.8213 6.34102 46.3128 5.43042 46.3128 4.31983C46.3128 2.2795 44.6384 0.78595 42.5789 0.78595H37.5174V13.5343H42.981C45.0937 13.5343 46.8064 12.0046 46.8064 9.89193C46.8064 8.52603 46.0958 7.48778 45.0213 6.92397H45.0192Z" fill="#F8F5F0"/>
<path d="M50.0998 5.96016V4.43043H48.134V13.5364H50.0998V8.94725C50.0998 6.90692 51.6104 6.30695 52.904 6.39843V4.26874C51.7572 4.26874 50.6466 4.72404 50.0998 5.96229V5.96016Z" fill="#F8F5F0"/>
<path d="M54.9805 0.549744C54.289 0.549744 53.7231 1.11354 53.7231 1.80713C53.7231 2.50072 54.2869 3.06453 54.9805 3.06453C55.6741 3.06453 56.2358 2.48157 56.2358 1.80713C56.2358 1.13269 55.6719 0.549744 54.9805 0.549744Z" fill="#F8F5F0"/>
<path d="M55.9634 4.43042H53.9975V13.5364H55.9634V4.43042Z" fill="#F8F5F0"/>
<path d="M62.227 11.7493C60.5696 11.7493 59.3314 10.5302 59.3314 8.88981C59.3314 7.24945 60.5696 6.03036 62.227 6.03036C63.8844 6.03036 65.1226 7.24945 65.1226 8.88981C65.1226 10.5302 63.8844 11.7493 62.227 11.7493ZM65.1226 5.77718C64.4311 4.79424 63.3567 4.19214 61.9547 4.19214C59.3867 4.19214 57.3655 6.28567 57.3655 8.88981C57.3655 11.4939 59.3867 13.5875 61.9547 13.5875C63.3567 13.5875 64.4311 12.9875 65.1226 12.0024V13.113C65.1226 14.6981 64.1035 15.6257 62.41 15.6257C60.8249 15.6257 60.1505 15.0065 59.7505 14.2236L58.057 15.2066C58.8229 16.6639 60.3696 17.4107 62.3738 17.4107C64.7588 17.4107 67.0544 16.0448 67.0544 13.113V4.42617H65.1247V5.77292L65.1226 5.77718Z" fill="#F8F5F0"/>
<path d="M73.7733 4.19219C72.535 4.19219 71.5521 4.64748 70.95 5.59424V0.78595H68.9841V13.5343H70.95V8.65369C70.95 6.79632 71.9691 6.03041 73.2627 6.03041C74.5562 6.03041 75.303 6.75803 75.303 8.14308V13.5343H77.2689V7.94309C77.2689 5.5751 75.8115 4.19219 73.7733 4.19219Z" fill="#F8F5F0"/>
<path d="M80.7389 1.87952L78.7731 2.46247V10.694C78.7731 13.062 80.6368 13.8981 83.6601 13.5343V11.7684C82.1665 11.8408 80.7411 11.8599 80.7411 10.694V6.32401H83.6601V4.43047H80.7411V1.88164L80.7389 1.87952Z" fill="#F8F5F0"/>
<path d="M169.195 1.87952L167.229 2.46247V10.694C167.229 13.062 169.093 13.8981 172.116 13.5343V11.7684C170.622 11.8408 169.197 11.8599 169.197 10.694V6.32401H172.116V4.43047H169.197V1.88164L169.195 1.87952Z" fill="#C6A664"/>
<path d="M93.8745 10.7111L91.9789 4.42834H90.1045L88.1918 10.7111L86.4259 4.42834H84.3494L87.2089 13.5343H89.1386L91.0512 7.39843L92.9448 13.5343H94.8745L97.7339 4.42834H95.6574L93.8745 10.7111Z" fill="#F8F5F0"/>
<path d="M102.759 11.8599C101.157 11.8599 99.919 10.6408 99.919 8.98342C99.919 7.32605 101.157 6.10695 102.759 6.10695C104.361 6.10695 105.6 7.32605 105.6 8.98342C105.6 10.6408 104.361 11.8599 102.759 11.8599ZM102.759 4.19214C100.1 4.19214 97.951 6.26865 97.951 8.98129C97.951 11.6939 100.1 13.7704 102.759 13.7704C105.419 13.7704 107.568 11.6769 107.568 8.98129C107.568 6.28567 105.436 4.19214 102.759 4.19214Z" fill="#F8F5F0"/>
<path d="M113.286 11.8599C111.684 11.8599 110.446 10.6408 110.446 8.98342C110.446 7.32605 111.684 6.10695 113.286 6.10695C114.888 6.10695 116.127 7.32605 116.127 8.98342C116.127 10.6408 114.888 11.8599 113.286 11.8599ZM113.286 4.19214C110.627 4.19214 108.478 6.26865 108.478 8.98129C108.478 11.6939 110.627 13.7704 113.286 13.7704C115.946 13.7704 118.095 11.6769 118.095 8.98129C118.095 6.28567 115.965 4.19214 113.286 4.19214Z" fill="#F8F5F0"/>
<path d="M123.848 11.8961C122.209 11.8961 120.971 10.677 120.971 8.98346C120.971 7.28992 122.209 6.07082 123.848 6.07082C125.486 6.07082 126.724 7.28992 126.724 8.98346C126.724 10.677 125.486 11.8961 123.848 11.8961ZM126.724 5.7219C126.033 4.77513 124.958 4.19218 123.537 4.19218C121.061 4.19218 119.003 6.26869 119.003 8.98133C119.003 11.694 121.061 13.7705 123.537 13.7705C124.958 13.7705 126.033 13.1875 126.724 12.2216V13.5322H128.69V0.783813H126.724V5.71977V5.7219Z" fill="#F8F5F0"/>
<path d="M138.307 6.01339H132.843V0.788086H130.75V13.5343H132.843V8.01755H138.307V13.5343H140.4V0.788086H138.307V6.01339Z" fill="#C6A664"/>
<path d="M143.987 8.21749C144.26 6.85159 145.262 5.97717 146.736 5.97717C147.919 5.97717 149.068 6.6516 149.34 8.21749H143.985H143.987ZM146.755 4.19214C143.896 4.19214 141.947 6.28567 141.947 8.98129C141.947 11.6769 143.896 13.7704 146.9 13.7704C148.685 13.7704 150.051 13.0237 150.887 11.7854L149.266 10.8387C148.827 11.4769 148.008 11.9684 146.917 11.9684C145.459 11.9684 144.313 11.2408 144.004 9.81955H151.253C151.289 9.56425 151.325 9.27276 151.325 9.00043C151.325 6.37927 149.468 4.19214 146.755 4.19214Z" fill="#C6A664"/>
<path d="M156.972 11.896C155.334 11.896 154.095 10.677 154.095 8.98342C154.095 7.28988 155.334 6.07078 156.972 6.07078C158.61 6.07078 159.848 7.28988 159.848 8.98342C159.848 10.677 158.61 11.896 156.972 11.896ZM159.848 5.72186C159.157 4.77509 158.082 4.19214 156.661 4.19214C154.185 4.19214 152.127 6.26865 152.127 8.98129C152.127 11.6939 154.185 13.7704 156.661 13.7704C158.082 13.7704 159.157 13.1875 159.848 12.2216V13.5321H161.814V4.42617H159.848V5.71973V5.72186Z" fill="#C6A664"/>
<path d="M165.712 0.241272H163.746V13.5343H165.712V0.241272Z" fill="#C6A664"/>
<path d="M178.667 4.19219C177.428 4.19219 176.445 4.64748 175.843 5.59424V0.78595H173.877V13.5343H175.843V8.65369C175.843 6.79632 176.862 6.03041 178.156 6.03041C179.45 6.03041 180.196 6.75803 180.196 8.14308V13.5343H182.162V7.94309C182.162 5.5751 180.705 4.19219 178.667 4.19219Z" fill="#C6A664"/>
<path d="M52.6067 23.9607C52.8834 23.9607 53.1267 23.924 53.3367 23.8507C53.55 23.7774 53.7284 23.6757 53.8717 23.5457C54.0184 23.4124 54.1284 23.254 54.2017 23.0707C54.275 22.8874 54.3117 22.6857 54.3117 22.4657C54.3117 22.009 54.17 21.6524 53.8867 21.3957C53.6067 21.139 53.18 21.0107 52.6067 21.0107H51.4567V23.9607H52.6067ZM52.6067 20.2457C53.06 20.2457 53.4534 20.299 53.7867 20.4057C54.1234 20.509 54.4017 20.6574 54.6217 20.8507C54.8417 21.044 55.005 21.2774 55.1117 21.5507C55.2217 21.824 55.2767 22.129 55.2767 22.4657C55.2767 22.799 55.2184 23.104 55.1017 23.3807C54.985 23.6574 54.8134 23.8957 54.5867 24.0957C54.3634 24.2957 54.085 24.4524 53.7517 24.5657C53.4217 24.6757 53.04 24.7307 52.6067 24.7307H51.4567V27.4107H50.4917V20.2457H52.6067ZM71.5826 23.7157C71.8626 23.7157 72.1092 23.6824 72.3226 23.6157C72.5392 23.5457 72.7192 23.449 72.8626 23.3257C73.0092 23.199 73.1192 23.049 73.1926 22.8757C73.2659 22.7024 73.3026 22.5107 73.3026 22.3007C73.3026 21.874 73.1626 21.5524 72.8826 21.3357C72.6026 21.119 72.1826 21.0107 71.6226 21.0107H70.5626V23.7157H71.5826ZM74.8926 27.4107H74.0326C73.8559 27.4107 73.7259 27.3424 73.6426 27.2057L71.7826 24.6457C71.7259 24.5657 71.6642 24.509 71.5976 24.4757C71.5342 24.439 71.4342 24.4207 71.2976 24.4207H70.5626V27.4107H69.5976V20.2457H71.6226C72.0759 20.2457 72.4676 20.2924 72.7976 20.3857C73.1276 20.4757 73.3992 20.6074 73.6126 20.7807C73.8292 20.954 73.9892 21.164 74.0926 21.4107C74.1959 21.654 74.2476 21.9274 74.2476 22.2307C74.2476 22.484 74.2076 22.7207 74.1276 22.9407C74.0476 23.1607 73.9309 23.359 73.7776 23.5357C73.6276 23.709 73.4426 23.8574 73.2226 23.9807C73.0059 24.104 72.7592 24.1974 72.4826 24.2607C72.6059 24.3307 72.7126 24.4324 72.8026 24.5657L74.8926 27.4107ZM93.3871 26.6207L93.3821 27.4107H88.9671V20.2457H93.3821V21.0357H89.9371V23.4157H92.7271V24.1757H89.9371V26.6207H93.3871ZM115.294 20.2457V27.4107H114.444V22.1457C114.444 22.0757 114.445 22.0007 114.449 21.9207C114.455 21.8407 114.462 21.759 114.469 21.6757L112.009 26.1557C111.932 26.3057 111.815 26.3807 111.659 26.3807H111.519C111.362 26.3807 111.245 26.3057 111.169 26.1557L108.659 21.6557C108.679 21.8324 108.689 21.9957 108.689 22.1457V27.4107H107.839V20.2457H108.554C108.64 20.2457 108.707 20.254 108.754 20.2707C108.8 20.2874 108.845 20.334 108.889 20.4107L111.364 24.8207C111.404 24.9007 111.442 24.984 111.479 25.0707C111.519 25.1574 111.555 25.2457 111.589 25.3357C111.622 25.2457 111.657 25.1574 111.694 25.0707C111.73 24.9807 111.77 24.8957 111.814 24.8157L114.244 20.4107C114.284 20.334 114.327 20.2874 114.374 20.2707C114.424 20.254 114.492 20.2457 114.579 20.2457H115.294ZM131.196 27.4107H130.226V20.2457H131.196V27.4107ZM150.548 26.6207L150.543 27.4107H146.128V20.2457H150.543V21.0357H147.098V23.4157H149.888V24.1757H147.098V26.6207H150.548ZM166.985 23.7157C167.265 23.7157 167.512 23.6824 167.725 23.6157C167.942 23.5457 168.122 23.449 168.265 23.3257C168.412 23.199 168.522 23.049 168.595 22.8757C168.668 22.7024 168.705 22.5107 168.705 22.3007C168.705 21.874 168.565 21.5524 168.285 21.3357C168.005 21.119 167.585 21.0107 167.025 21.0107H165.965V23.7157H166.985ZM170.295 27.4107H169.435C169.258 27.4107 169.128 27.3424 169.045 27.2057L167.185 24.6457C167.128 24.5657 167.067 24.509 167 24.4757C166.937 24.439 166.837 24.4207 166.7 24.4207H165.965V27.4107H165V20.2457H167.025C167.478 20.2457 167.87 20.2924 168.2 20.3857C168.53 20.4757 168.802 20.6074 169.015 20.7807C169.232 20.954 169.392 21.164 169.495 21.4107C169.598 21.654 169.65 21.9274 169.65 22.2307C169.65 22.484 169.61 22.7207 169.53 22.9407C169.45 23.1607 169.333 23.359 169.18 23.5357C169.03 23.709 168.845 23.8574 168.625 23.9807C168.408 24.104 168.162 24.1974 167.885 24.2607C168.008 24.3307 168.115 24.4324 168.205 24.5657L170.295 27.4107Z" fill="#F8F5F0"/>
</svg>
