<svg width="16" height="16" viewBox="0 0 16 16" fill="none" xmlns="http://www.w3.org/2000/svg">
<g clip-path="url(#clip0_7_52)">
<path d="M15.9385 6.0179C15.8687 5.79021 15.7387 5.58768 15.5636 5.43356C15.3884 5.27945 15.1751 5.18 14.9482 5.14663L10.9074 4.53407L9.10022 0.714318C8.99895 0.499927 8.84216 0.319393 8.64762 0.19315C8.45308 0.0669079 8.22854 0 7.99943 0C7.77032 0 7.54579 0.0669079 7.35124 0.19315C7.1567 0.319393 6.99992 0.499927 6.89865 0.714318L5.09147 4.53407L1.05072 5.14663C0.824147 5.18111 0.611332 5.28099 0.436302 5.43498C0.261272 5.58897 0.130998 5.79095 0.0601918 6.0181C-0.0106144 6.24525 -0.0191329 6.48853 0.0355982 6.72046C0.0903293 6.9524 0.20613 7.16375 0.369924 7.33066L3.29469 10.3042L2.6043 14.502C2.56494 14.7376 2.58972 14.98 2.67582 15.2016C2.76193 15.4233 2.9059 15.6153 3.09139 15.7559C3.27688 15.8964 3.49644 15.9799 3.72512 15.9968C3.95381 16.0137 4.18245 15.9633 4.38508 15.8514L7.99943 13.8694L11.6138 15.8514C11.8165 15.9623 12.0449 16.0119 12.2732 15.9945C12.5014 15.9772 12.7205 15.8937 12.9057 15.7533C13.0909 15.613 13.2348 15.4215 13.3212 15.2004C13.4075 14.9793 13.433 14.7374 13.3946 14.502L12.7042 10.3042L15.6289 7.32982C15.7936 7.16362 15.9099 6.95238 15.9647 6.72033C16.0194 6.48828 16.0104 6.24483 15.9385 6.0179Z" fill="#C6A664"/>
</g>
<defs>
<clipPath id="clip0_7_52">
<rect width="16" height="16" fill="white"/>
</clipPath>
</defs>
</svg>
