<svg width="308" height="290" viewBox="0 0 308 290" fill="none" xmlns="http://www.w3.org/2000/svg">
<path opacity="0.2" d="M312.306 170.835L237.346 92.166L209.693 121.825L280.117 195.747L186.967 266.684L96.6521 195.569L160.578 126.985L160.605 127.013L219.945 63.3517C224.665 58.2745 229.647 54.1523 234.747 51.0812C245.162 44.8154 257.064 41.4936 269.162 41.4936C307.373 41.4936 338.453 74.1244 338.453 114.213C338.453 134.587 328.345 156.184 312.303 170.832L312.306 170.835ZM321.651 329.5H56.0313V239.199L57.2849 237.842L57.2718 237.828L68.7805 225.475L186.578 318.253L308.434 225.462L321.654 239.336V329.5H321.651ZM378 114.22C378 51.2358 329.18 0 269.165 0C250.17 0 231.467 5.21461 215.071 15.0908C207.939 19.3779 201.114 24.7883 194.692 31.2052L194.679 31.219L101.542 131.121L101.49 131.066L64.941 170.282C49.3735 155.854 39.5407 134.412 39.5407 114.216C39.5407 74.1279 70.6201 41.497 108.845 41.497C118.177 41.497 127.247 43.4345 135.604 47.1136L164.549 16.0595C147.941 5.64401 128.789 0 108.848 0C48.8203 0 0 51.2358 0 114.22C0 145.745 14.0782 177.73 37.2756 199.986L16.4906 222.284V349.077C16.4906 361.179 25.8488 371 37.3804 371H340.302C351.834 371 361.192 361.179 361.192 349.077V222.147L340.312 200.234C363.801 177.795 377.997 145.827 377.997 114.22H378Z" fill="#C6A664"/>
</svg>
